<svg xmlns="http://www.w3.org/2000/svg" version="1.1" xmlns:xlink="http://www.w3.org/1999/xlink" xmlns:svgjs="http://svgjs.dev/svgjs" width="1500" height="1500" viewBox="0 0 1500 1500"><rect width="1500" height="1500" fill="#000000"></rect><g transform="matrix(0.6666666666666666,0,0,0.6666666666666666,249.39393939393938,438.5856950067477)"><svg viewBox="0 0 396 247" data-background-color="#ffffff" preserveAspectRatio="xMidYMid meet" height="935" width="1500" xmlns="http://www.w3.org/2000/svg" xmlns:xlink="http://www.w3.org/1999/xlink"><g id="tight-bounds" transform="matrix(1,0,0,1,0.2400000000000091,-0.09999999999999432)"><svg viewBox="0 0 395.52 247.2" height="247.2" width="395.52"><g><svg></svg></g><g><svg viewBox="0 0 395.52 247.2" height="247.2" width="395.52"><g transform="matrix(1,0,0,1,96.93969210690298,47.215199999999996)"><svg viewBox="0 0 201.64061578619402 152.7696" height="152.7696" width="201.64061578619402"><g><svg viewBox="0 0 201.64061578619402 152.7696" height="152.7696" width="201.64061578619402"><g><svg viewBox="0 0 244.43135999999998 185.18928316629706" height="152.7696" width="201.64061578619402"><g><svg viewBox="0 0 244.43135999999998 185.18928316629706" height="185.18928316629706" width="244.43135999999998"><g id="textblocktransform"><svg viewBox="0 0 244.43135999999998 185.18928316629706" height="185.18928316629706" width="244.43135999999998" id="textblock"><g><svg viewBox="0 0 244.43135999999998 137.835064978372" height="137.835064978372" width="244.43135999999998"><g transform="matrix(1,0,0,1,0,0)"><svg width="244.43135999999998" viewBox="2.86 -35.01 62.08 35.01" height="137.835064978372" data-palette-color="#131313"><path d="M30.86-35.01L30.86-13.99Q30.86-11.08 29.76-8.53 28.66-5.98 26.76-4.09 24.85-2.2 22.3-1.1 19.75 0 16.85 0L16.85 0Q13.94 0 11.39-1.1 8.84-2.2 6.95-4.09 5.05-5.98 3.96-8.53 2.86-11.08 2.86-13.99L2.86-13.99 2.86-35.01 9.84-35.01 9.84-13.99Q9.84-12.55 10.39-11.28 10.94-10.01 11.89-9.06 12.84-8.11 14.12-7.56 15.41-7.01 16.85-7.01L16.85-7.01Q18.29-7.01 19.57-7.56 20.85-8.11 21.8-9.06 22.75-10.01 23.3-11.28 23.85-12.55 23.85-13.99L23.85-13.99 23.85-35.01 30.86-35.01ZM43.94-7.01L43.94 0 36.94 0 36.94-35.01 43.94-35.01 43.94-17.5 56.98-35.01 64.94-35.01 53.88-20.24 64.94 0 56.98 0 49.29-14.16 43.94-7.01Z" opacity="1" transform="matrix(1,0,0,1,0,0)" fill="#ffffff" class="wordmark-text-0" data-fill-palette-color="primary" id="text-0"></path></svg></g></svg></g><g transform="matrix(1,0,0,1,102.78338688,170.37461577820616)"><svg viewBox="0 0 141.64797312 14.814667388090921" height="14.814667388090921" width="141.64797312"><g transform="matrix(1,0,0,1,0,0)"><svg width="141.64797312" viewBox="4.7 -37 358.52000000000004 37.5" height="14.814667388090921" data-palette-color="#131313"><path d="M29.45-35L29.45-35Q30.15-35 30.55-34.58 30.95-34.15 30.95-33.5L30.95-33.5 30.95-12.8Q30.95-9.1 29.2-6.1 27.45-3.1 24.5-1.33 21.55 0.45 17.85 0.45L17.85 0.45Q14.15 0.45 11.18-1.33 8.2-3.1 6.45-6.1 4.7-9.1 4.7-12.8L4.7-12.8 4.7-33.5Q4.7-34.15 5.13-34.58 5.55-35 6.3-35L6.3-35Q6.9-35 7.35-34.58 7.8-34.15 7.8-33.5L7.8-33.5 7.8-12.8Q7.8-9.9 9.18-7.6 10.55-5.3 12.85-3.93 15.15-2.55 17.85-2.55L17.85-2.55Q20.65-2.55 22.95-3.93 25.25-5.3 26.63-7.6 28-9.9 28-12.8L28-12.8 28-33.5Q28-34.15 28.4-34.58 28.8-35 29.45-35ZM60.35-37L60.35-37Q61-37 61.42-36.58 61.85-36.15 61.85-35.5L61.85-35.5 61.85-1.5Q61.85-0.9 61.4-0.45 60.95 0 60.35 0L60.35 0Q59.65 0 59.25-0.45 58.85-0.9 58.85-1.5L58.85-1.5 58.85-7.45 59.7-8.15Q59.7-6.75 58.95-5.23 58.2-3.7 56.82-2.4 55.45-1.1 53.62-0.3 51.8 0.5 49.65 0.5L49.65 0.5Q46.35 0.5 43.67-1.25 41-3 39.45-6 37.9-9 37.9-12.85L37.9-12.85Q37.9-16.65 39.45-19.68 41-22.7 43.65-24.43 46.3-26.15 49.6-26.15L49.6-26.15Q51.7-26.15 53.55-25.4 55.4-24.65 56.82-23.35 58.25-22.05 59.07-20.38 59.9-18.7 59.9-16.9L59.9-16.9 58.85-17.65 58.85-35.5Q58.85-36.1 59.25-36.55 59.65-37 60.35-37ZM49.95-2.3L49.95-2.3Q52.6-2.3 54.65-3.68 56.7-5.05 57.87-7.43 59.05-9.8 59.05-12.85L59.05-12.85Q59.05-15.85 57.87-18.23 56.7-20.6 54.65-21.98 52.6-23.35 49.95-23.35L49.95-23.35Q47.35-23.35 45.27-21.98 43.2-20.6 42.02-18.23 40.85-15.85 40.85-12.85L40.85-12.85Q40.85-9.85 42.02-7.45 43.2-5.05 45.27-3.68 47.35-2.3 49.95-2.3ZM90.45-25.55L90.45-25.55Q91.09-25.55 91.52-25.1 91.95-24.65 91.95-24L91.95-24 91.95-1.5Q91.95-0.9 91.5-0.45 91.05 0 90.45 0L90.45 0Q89.75 0 89.34-0.45 88.95-0.9 88.95-1.5L88.95-1.5 88.95-7.45 89.8-7.85Q89.8-6.45 89.02-5 88.25-3.55 86.9-2.3 85.55-1.05 83.72-0.28 81.9 0.5 79.75 0.5L79.75 0.5Q76.4 0.5 73.72-1.25 71.05-3 69.52-6.05 68-9.1 68-12.9L68-12.9Q68-16.8 69.55-19.78 71.09-22.75 73.75-24.45 76.4-26.15 79.7-26.15L79.7-26.15Q81.84-26.15 83.72-25.4 85.59-24.65 87-23.35 88.4-22.05 89.2-20.38 90-18.7 90-16.9L90-16.9 88.95-17.65 88.95-24Q88.95-24.65 89.34-25.1 89.75-25.55 90.45-25.55ZM80.05-2.3L80.05-2.3Q82.7-2.3 84.75-3.68 86.8-5.05 87.97-7.48 89.15-9.9 89.15-12.9L89.15-12.9Q89.15-15.85 87.97-18.2 86.8-20.55 84.75-21.95 82.7-23.35 80.05-23.35L80.05-23.35Q77.45-23.35 75.37-22 73.3-20.65 72.12-18.3 70.95-15.95 70.95-12.9L70.95-12.9Q70.95-9.9 72.09-7.48 73.25-5.05 75.32-3.68 77.4-2.3 80.05-2.3ZM101.29 0L101.29 0Q100.59 0 100.19-0.45 99.79-0.9 99.79-1.5L99.79-1.5 99.79-23.9Q99.79-24.5 100.22-24.95 100.64-25.4 101.29-25.4L101.29-25.4Q101.94-25.4 102.37-24.95 102.79-24.5 102.79-23.9L102.79-23.9 102.79-16.4 102.04-16.25Q102.19-18 102.92-19.73 103.64-21.45 104.89-22.9 106.14-24.35 107.87-25.25 109.59-26.15 111.74-26.15L111.74-26.15Q112.64-26.15 113.49-25.78 114.34-25.4 114.34-24.55L114.34-24.55Q114.34-23.8 113.94-23.4 113.54-23 112.99-23L112.99-23Q112.54-23 112.02-23.25 111.49-23.5 110.64-23.5L110.64-23.5Q109.24-23.5 107.84-22.68 106.44-21.85 105.29-20.45 104.14-19.05 103.47-17.32 102.79-15.6 102.79-13.85L102.79-13.85 102.79-1.5Q102.79-0.9 102.34-0.45 101.89 0 101.29 0ZM139.19-25.55L139.19-25.55Q139.84-25.55 140.27-25.1 140.69-24.65 140.69-24L140.69-24 140.69-1.5Q140.69-0.9 140.24-0.45 139.79 0 139.19 0L139.19 0Q138.49 0 138.09-0.45 137.69-0.9 137.69-1.5L137.69-1.5 137.69-7.45 138.54-7.85Q138.54-6.45 137.77-5 136.99-3.55 135.64-2.3 134.29-1.05 132.47-0.28 130.64 0.5 128.49 0.5L128.49 0.5Q125.14 0.5 122.47-1.25 119.79-3 118.27-6.05 116.74-9.1 116.74-12.9L116.74-12.9Q116.74-16.8 118.29-19.78 119.84-22.75 122.49-24.45 125.14-26.15 128.44-26.15L128.44-26.15Q130.59-26.15 132.47-25.4 134.34-24.65 135.74-23.35 137.14-22.05 137.94-20.38 138.74-18.7 138.74-16.9L138.74-16.9 137.69-17.65 137.69-24Q137.69-24.65 138.09-25.1 138.49-25.55 139.19-25.55ZM128.79-2.3L128.79-2.3Q131.44-2.3 133.49-3.68 135.54-5.05 136.72-7.48 137.89-9.9 137.89-12.9L137.89-12.9Q137.89-15.85 136.72-18.2 135.54-20.55 133.49-21.95 131.44-23.35 128.79-23.35L128.79-23.35Q126.19-23.35 124.12-22 122.04-20.65 120.87-18.3 119.69-15.95 119.69-12.9L119.69-12.9Q119.69-9.9 120.84-7.48 121.99-5.05 124.07-3.68 126.14-2.3 128.79-2.3ZM187.94 0.2L187.94 0.2Q187.29 0.2 186.84-0.35L186.84-0.35 172.64-18.2 174.99-20.55 189.29-2.45Q189.64-1.95 189.64-1.4L189.64-1.4Q189.64-0.6 189.06-0.2 188.49 0.2 187.94 0.2ZM187.39-34.9L187.39-34.9Q187.99-34.9 188.41-34.45 188.84-34 188.84-33.45L188.84-33.45Q188.84-32.85 188.39-32.4L188.39-32.4 165.69-11.15 165.29-14.55 186.29-34.4Q186.79-34.9 187.39-34.9ZM164.49 0L164.49 0Q163.79 0 163.36-0.45 162.94-0.9 162.94-1.55L162.94-1.55 162.94-33.45Q162.94-34.1 163.39-34.55 163.84-35 164.54-35L164.54-35Q165.19-35 165.64-34.55 166.09-34.1 166.09-33.45L166.09-33.45 166.09-1.55Q166.04-0.9 165.59-0.45 165.14 0 164.49 0ZM216.68-25.55L216.68-25.55Q217.33-25.55 217.76-25.1 218.18-24.65 218.18-24L218.18-24 218.18-1.5Q218.18-0.9 217.73-0.45 217.28 0 216.68 0L216.68 0Q215.98 0 215.58-0.45 215.18-0.9 215.18-1.5L215.18-1.5 215.18-7.45 216.03-7.85Q216.03-6.45 215.26-5 214.48-3.55 213.13-2.3 211.78-1.05 209.96-0.28 208.13 0.5 205.98 0.5L205.98 0.5Q202.63 0.5 199.96-1.25 197.28-3 195.76-6.05 194.23-9.1 194.23-12.9L194.23-12.9Q194.23-16.8 195.78-19.78 197.33-22.75 199.98-24.45 202.63-26.15 205.93-26.15L205.93-26.15Q208.08-26.15 209.96-25.4 211.83-24.65 213.23-23.35 214.63-22.05 215.43-20.38 216.23-18.7 216.23-16.9L216.23-16.9 215.18-17.65 215.18-24Q215.18-24.65 215.58-25.1 215.98-25.55 216.68-25.55ZM206.28-2.3L206.28-2.3Q208.93-2.3 210.98-3.68 213.03-5.05 214.21-7.48 215.38-9.9 215.38-12.9L215.38-12.9Q215.38-15.85 214.21-18.2 213.03-20.55 210.98-21.95 208.93-23.35 206.28-23.35L206.28-23.35Q203.68-23.35 201.61-22 199.53-20.65 198.36-18.3 197.18-15.95 197.18-12.9L197.18-12.9Q197.18-9.9 198.33-7.48 199.48-5.05 201.56-3.68 203.63-2.3 206.28-2.3ZM224.83-26.1L224.83-26.1Q225.23-26.1 225.63-25.85 226.03-25.6 226.23-25.1L226.23-25.1 234.98-4.3 234.33-3.9 243.28-25.1Q243.68-26.1 244.73-26.05L244.73-26.05Q245.23-26.05 245.68-25.73 246.13-25.4 246.13-24.8L246.13-24.8Q246.13-24.5 246.06-24.33 245.98-24.15 245.93-23.95L245.93-23.95 236.13-0.95Q235.73-0.05 234.78 0L234.78 0Q234.33 0.05 233.91-0.23 233.48-0.5 233.28-0.95L233.28-0.95 223.43-23.95Q223.38-24.05 223.33-24.25 223.28-24.45 223.28-24.65L223.28-24.65Q223.28-25.2 223.68-25.65 224.08-26.1 224.83-26.1ZM254.78-24.5L254.78-1.5Q254.78-0.9 254.33-0.45 253.88 0 253.28 0L253.28 0Q252.63 0 252.2-0.45 251.78-0.9 251.78-1.5L251.78-1.5 251.78-24.5Q251.78-25.1 252.2-25.55 252.63-26 253.28-26L253.28-26Q253.93-26 254.35-25.55 254.78-25.1 254.78-24.5L254.78-24.5ZM253.28-29.35L253.28-29.35Q252.23-29.35 251.7-29.83 251.18-30.3 251.18-31.2L251.18-31.2 251.18-31.7Q251.18-32.6 251.75-33.08 252.33-33.55 253.33-33.55L253.33-33.55Q254.28-33.55 254.8-33.08 255.33-32.6 255.33-31.7L255.33-31.7 255.33-31.2Q255.33-30.3 254.8-29.83 254.28-29.35 253.28-29.35ZM261.13-4.05L261.13-4.05Q260.73-4.65 260.75-5.23 260.77-5.8 261.38-6.15L261.38-6.15Q261.77-6.5 262.3-6.45 262.82-6.4 263.27-5.95L263.27-5.95Q264.63-4.2 266.55-3.13 268.48-2.05 271.13-2.05L271.13-2.05Q272.52-2.05 273.9-2.53 275.27-3 276.18-3.98 277.07-4.95 277.07-6.45L277.07-6.45Q277.07-8 276.18-8.95 275.27-9.9 273.85-10.45 272.43-11 270.82-11.4L270.82-11.4Q269.13-11.85 267.52-12.43 265.93-13 264.7-13.88 263.48-14.75 262.73-16 261.98-17.25 261.98-19.05L261.98-19.05Q261.98-21.15 263.13-22.75 264.27-24.35 266.25-25.25 268.23-26.15 270.73-26.15L270.73-26.15Q271.98-26.15 273.43-25.83 274.88-25.5 276.27-24.75 277.68-24 278.77-22.7L278.77-22.7Q279.23-22.25 279.23-21.68 279.23-21.1 278.73-20.65L278.73-20.65Q278.32-20.35 277.8-20.35 277.27-20.35 276.93-20.75L276.93-20.75Q275.73-22.1 274.07-22.8 272.43-23.5 270.52-23.5L270.52-23.5Q269.07-23.5 267.8-23.03 266.52-22.55 265.68-21.6 264.82-20.65 264.82-19.1L264.82-19.1Q264.93-17.65 265.85-16.75 266.77-15.85 268.3-15.25 269.82-14.65 271.73-14.15L271.73-14.15Q273.32-13.75 274.8-13.2 276.27-12.65 277.4-11.83 278.52-11 279.2-9.75 279.88-8.5 279.88-6.6L279.88-6.6Q279.88-4.4 278.65-2.8 277.43-1.2 275.38-0.35 273.32 0.5 270.82 0.5L270.82 0.5Q268.13 0.5 265.6-0.55 263.07-1.6 261.13-4.05ZM297.67-25.75L297.67-25.75Q300.82-25.75 302.77-24.4 304.72-23.05 305.65-20.75 306.57-18.45 306.57-15.65L306.57-15.65 306.57-1.5Q306.57-0.9 306.12-0.45 305.67 0 305.07 0L305.07 0Q304.37 0 303.97-0.45 303.57-0.9 303.57-1.5L303.57-1.5 303.57-15.65Q303.57-17.7 302.95-19.35 302.32-21 300.92-21.98 299.52-22.95 297.17-22.95L297.17-22.95Q295.07-22.95 293.2-21.98 291.32-21 290.17-19.35 289.02-17.7 289.02-15.65L289.02-15.65 289.02-1.5Q289.02-0.9 288.57-0.45 288.12 0 287.52 0L287.52 0Q286.82 0 286.42-0.45 286.02-0.9 286.02-1.5L286.02-1.5 286.02-35.5Q286.02-36.1 286.45-36.55 286.87-37 287.52-37L287.52-37Q288.17-37 288.6-36.55 289.02-36.1 289.02-35.5L289.02-35.5 289.02-19.3 287.87-17.55Q287.97-19.1 288.85-20.58 289.72-22.05 291.12-23.23 292.52-24.4 294.22-25.08 295.92-25.75 297.67-25.75ZM316.22 0L316.22 0Q315.57 0 315.14-0.45 314.72-0.9 314.72-1.5L314.72-1.5 314.72-35.5Q314.72-36.1 315.14-36.55 315.57-37 316.22-37L316.22-37Q316.87-37 317.29-36.55 317.72-36.1 317.72-35.5L317.72-35.5 317.72-1.5Q317.72-0.9 317.29-0.45 316.87 0 316.22 0ZM333.22-25.65L333.22-25.65Q333.77-25.65 334.22-25.18 334.67-24.7 334.67-24.15L334.67-24.15Q334.67-23.5 334.12-23L334.12-23 317.32-8.7 317.17-12.25 332.17-25.15Q332.62-25.65 333.22-25.65ZM333.62 0L333.62 0Q332.97 0 332.52-0.55L332.52-0.55 321.12-12.65 323.37-14.7 334.67-2.65Q335.12-2.15 335.12-1.5L335.12-1.5Q335.12-0.8 334.57-0.4 334.02 0 333.62 0ZM361.72-25.55L361.72-25.55Q362.37-25.55 362.79-25.1 363.22-24.65 363.22-24L363.22-24 363.22-1.5Q363.22-0.9 362.77-0.45 362.32 0 361.72 0L361.72 0Q361.02 0 360.62-0.45 360.22-0.9 360.22-1.5L360.22-1.5 360.22-7.45 361.07-7.85Q361.07-6.45 360.29-5 359.52-3.55 358.17-2.3 356.82-1.05 354.99-0.28 353.17 0.5 351.02 0.5L351.02 0.5Q347.67 0.5 344.99-1.25 342.32-3 340.79-6.05 339.27-9.1 339.27-12.9L339.27-12.9Q339.27-16.8 340.82-19.78 342.37-22.75 345.02-24.45 347.67-26.15 350.97-26.15L350.97-26.15Q353.12-26.15 354.99-25.4 356.87-24.65 358.27-23.35 359.67-22.05 360.47-20.38 361.27-18.7 361.27-16.9L361.27-16.9 360.22-17.65 360.22-24Q360.22-24.65 360.62-25.1 361.02-25.55 361.72-25.55ZM351.32-2.3L351.32-2.3Q353.97-2.3 356.02-3.68 358.07-5.05 359.24-7.48 360.42-9.9 360.42-12.9L360.42-12.9Q360.42-15.85 359.24-18.2 358.07-20.55 356.02-21.95 353.97-23.35 351.32-23.35L351.32-23.35Q348.72-23.35 346.64-22 344.57-20.65 343.39-18.3 342.22-15.95 342.22-12.9L342.22-12.9Q342.22-9.9 343.37-7.48 344.52-5.05 346.59-3.68 348.67-2.3 351.32-2.3Z" opacity="1" transform="matrix(1,0,0,1,0,0)" fill="#ffffff" class="slogan-text-1" data-fill-palette-color="secondary" id="text-1"></path></svg></g></svg></g></svg></g></svg></g></svg></g></svg></g></svg></g><path d="M275.718 41.215L275.718 0 28.518 0 28.518 247.2 275.718 247.2 275.718 205.985 265.464 205.985 265.464 236.946 38.772 236.946 38.772 10.254 265.464 10.254 265.464 41.215Z" fill="#ffffff" stroke="transparent" data-fill-palette-color="tertiary"></path></svg></g><defs></defs></svg><rect width="395.52" height="247.2" fill="none" stroke="none" visibility="hidden"></rect></g></svg></g></svg>